# xmcd CD database file
#
# Track frame offsets:
#	182
#	12287
#	26437
#	40545
#	54352
#	66042
#	78230
#	93172
#	108055
#	120972
#	133757
#	147277
#	158622
#	171052
#	181832
#	193240
#	204142
#	218130
#	231970
#	245300
#	257442
#	270127
#	281977
#	293292
#
# Disc length: 4057 seconds
#
# Revision: 3
# Processed by: cddbd v1.5.2PL0 Copyright (c) Steve Scherf et al.
# Submitted via: CDex 1.70beta2
#
DISCID=2f0fd718
DTITLE=Various Artist - 24 Accordeon Classics
DYEAR=1993
DGENRE=Jazz
TTITLE0=Gus Viseur - Flambee Montalbanaise
TTITLE1=Edith Piaf - L'accordeoniste
TTITLE2=Medard Ferrero - El Ferrero
TTITLE3=Les Freres Peguri  - Enivrante
TTITLE4=Michel Warlop - Strange Harmony
TTITLE5=Emile Vacher - Mado
TTITLE6=Gus Viseur - Matelotte
TTITLE7=Jean Gabin - Quand On Se Promene
TTITLE8=Emile Vacher - Sporting Java
TTITLE9=Tony Murena - Pepee
TTITLE10=Damia - La Guinguette A Ferme Ses Volets
TTITLE11=Gus Viseur - Swing Valse
TTITLE12=Guerino - Brise Napolitaine
TTITLE13=Victor Sous - Coeur Vagabond
TTITLE14=Tony Murena - Nostalgia Gitana
TTITLE15=Gus Viseur - Soir De Dispute
TTITLE16=Emile Carrara - Le Charmeur De Serpents
TTITLE17=Medard Ferrero - Les Triolets
TTITLE18=Guerino - Gallito
TTITLE19=Gus Viseur - Swing 39
TTITLE20=Emile Prud'homme - Pinsonnette
TTITLE21=Gus Viseur - Rosetta
TTITLE22=Tony Murena - Melancolie
TTITLE23=Gus Viseur - Jeannette
EXTD=YEAR: 1993
EXTT0=
EXTT1=
EXTT2=
EXTT3=
EXTT4=
EXTT5=
EXTT6=
EXTT7=
EXTT8=
EXTT9=
EXTT10=
EXTT11=
EXTT12=
EXTT13=
EXTT14=
EXTT15=
EXTT16=
EXTT17=
EXTT18=
EXTT19=
EXTT20=
EXTT21=
EXTT22=
EXTT23=
PLAYORDER=
